<svg width="20" height="20" viewBox="0 0 20 20" fill="none" xmlns="http://www.w3.org/2000/svg">
<path d="M9.566 19.112C9.69273 19.2018 9.8442 19.25 9.9995 19.25C10.1548 19.25 10.3063 19.2018 10.433 19.112L10 18.5L10.434 19.112L10.442 19.106L10.463 19.091L10.543 19.033C10.6123 18.983 10.7107 18.91 10.838 18.814C12.324 17.6924 13.7267 16.4645 15.035 15.14C16.183 13.972 17.35 12.607 18.234 11.159C19.114 9.719 19.75 8.135 19.75 6.547C19.75 4.662 19.165 3.189 18.13 2.189C17.1 1.195 15.71 0.75 14.25 0.75C12.525 0.75 11.002 1.583 10 2.867C8.998 1.583 7.474 0.75 5.75 0.75C2.67 0.75 0.25 3.389 0.25 6.547C0.25 8.135 0.887 9.718 1.766 11.159C2.65 12.607 3.817 13.972 4.965 15.141C6.35981 16.5521 7.86161 17.8534 9.457 19.033L9.537 19.091L9.558 19.106L9.566 19.112Z" fill="#4B4B4B"/>
</svg>
