<svg width="21" height="19" viewBox="0 0 21 19" fill="none" xmlns="http://www.w3.org/2000/svg">
<path fill-rule="evenodd" clip-rule="evenodd" d="M0.375 7.2C0.375 4.68 0.375 3.42 0.8655 2.457C1.29692 1.61031 1.98531 0.921923 2.832 0.4905C3.795 -1.3411e-07 5.055 0 7.575 0H13.425C15.945 0 17.205 -1.3411e-07 18.168 0.4905C19.0147 0.921923 19.7031 1.61031 20.1345 2.457C20.625 3.42 20.625 4.68 20.625 7.2V8.55C20.625 11.07 20.625 12.33 20.1345 13.293C19.7031 14.1397 19.0147 14.8281 18.168 15.2595C17.205 15.75 15.945 15.75 13.425 15.75H5.34075C5.04241 15.7501 4.7563 15.8686 4.54537 16.0796L2.29537 18.3296C1.58662 19.0384 0.375 18.5366 0.375 17.5343V7.2ZM7.125 4.5C6.82663 4.5 6.54048 4.61853 6.3295 4.8295C6.11853 5.04048 6 5.32663 6 5.625C6 5.92337 6.11853 6.20952 6.3295 6.4205C6.54048 6.63147 6.82663 6.75 7.125 6.75H13.875C14.1734 6.75 14.4595 6.63147 14.6705 6.4205C14.8815 6.20952 15 5.92337 15 5.625C15 5.32663 14.8815 5.04048 14.6705 4.8295C14.4595 4.61853 14.1734 4.5 13.875 4.5H7.125ZM7.125 9C6.82663 9 6.54048 9.11853 6.3295 9.3295C6.11853 9.54048 6 9.82663 6 10.125C6 10.4234 6.11853 10.7095 6.3295 10.9205C6.54048 11.1315 6.82663 11.25 7.125 11.25H10.5C10.7984 11.25 11.0845 11.1315 11.2955 10.9205C11.5065 10.7095 11.625 10.4234 11.625 10.125C11.625 9.82663 11.5065 9.54048 11.2955 9.3295C11.0845 9.11853 10.7984 9 10.5 9H7.125Z" fill="#4B4B4B"/>
</svg>
