<svg width="22" height="22" viewBox="0 0 22 22" fill="none" xmlns="http://www.w3.org/2000/svg">
<path d="M20.1663 9.16634C20.1663 6.59943 20.1663 5.31598 19.6668 4.33555C19.2274 3.47314 18.5262 2.77198 17.6638 2.33256C16.6834 1.83301 15.3999 1.83301 12.833 1.83301H9.16634C6.59943 1.83301 5.31598 1.83301 4.33555 2.33256C3.47314 2.77198 2.77198 3.47314 2.33256 4.33555C1.83301 5.31598 1.83301 6.59943 1.83301 9.16634V13.0423C1.83301 14.9518 3.38092 16.4997 5.29036 16.4997H5.84197C6.55614 16.4997 7.04449 17.221 6.77925 17.8841C6.40482 18.8202 7.48288 19.6664 8.30328 19.0804L10.6965 17.371C10.7209 17.3536 10.7331 17.3449 10.7451 17.3364C11.5096 16.7977 12.4206 16.5058 13.3558 16.4998C13.3705 16.4997 13.3855 16.4997 13.4155 16.4997H13.9185C15.4669 16.4997 16.2411 16.4997 16.8726 16.3145C18.3706 15.8753 19.542 14.7039 19.9812 13.206C20.1663 12.5744 20.1663 11.8003 20.1663 10.2519V9.16634Z" stroke="#4B4B4B" stroke-width="1.5"/>
<path d="M8.24935 9.16667C8.24935 9.67293 7.83894 10.0833 7.33268 10.0833C6.82642 10.0833 6.41602 9.67293 6.41602 9.16667C6.41602 8.66041 6.82642 8.25 7.33268 8.25C7.83894 8.25 8.24935 8.66041 8.24935 9.16667Z" fill="#4B4B4B"/>
<path d="M11.916 9.16667C11.916 9.67293 11.5056 10.0833 10.9993 10.0833C10.4931 10.0833 10.0827 9.67293 10.0827 9.16667C10.0827 8.66041 10.4931 8.25 10.9993 8.25C11.5056 8.25 11.916 8.66041 11.916 9.16667Z" fill="#4B4B4B"/>
<path d="M15.5827 9.16667C15.5827 9.67293 15.1723 10.0833 14.666 10.0833C14.1598 10.0833 13.7493 9.67293 13.7493 9.16667C13.7493 8.66041 14.1598 8.25 14.666 8.25C15.1723 8.25 15.5827 8.66041 15.5827 9.16667Z" fill="#4B4B4B"/>
</svg>
